<mxfile host="Electron" modified="2024-11-16T23:22:39.755Z" agent="Mozilla/5.0 (Macintosh; Intel Mac OS X 10_15_7) AppleWebKit/537.36 (KHTML, like Gecko) draw.io/22.1.11 Chrome/114.0.5735.289 Electron/25.9.8 Safari/537.36" etag="UWrYDkSuN--SkfaOf2Ei" version="22.1.11" type="device">
  <diagram name="ページ1" id="2d2s64b2s3Svh5MnNI-2">
    <mxGraphModel dx="767" dy="534" grid="1" gridSize="10" guides="1" tooltips="1" connect="1" arrows="1" fold="1" page="1" pageScale="1" pageWidth="827" pageHeight="1169" math="0" shadow="0">
      <root>
        <mxCell id="0" />
        <mxCell id="1" parent="0" />
        <mxCell id="8s10dRwILeoP8qLKrgz9-1" value="" style="rounded=0;whiteSpace=wrap;html=1;" vertex="1" parent="1">
          <mxGeometry x="170" y="110" width="290" height="250" as="geometry" />
        </mxCell>
        <mxCell id="8s10dRwILeoP8qLKrgz9-2" value="" style="rounded=0;whiteSpace=wrap;html=1;" vertex="1" parent="1">
          <mxGeometry x="170" y="110" width="290" height="110" as="geometry" />
        </mxCell>
        <mxCell id="8s10dRwILeoP8qLKrgz9-3" value="・A&lt;br style=&quot;border-color: var(--border-color);&quot;&gt;・A&lt;br&gt;・A&lt;br style=&quot;border-color: var(--border-color);&quot;&gt;・A&lt;br&gt;・A&lt;br style=&quot;border-color: var(--border-color);&quot;&gt;・A" style="text;html=1;strokeColor=none;fillColor=none;align=center;verticalAlign=middle;whiteSpace=wrap;rounded=0;" vertex="1" parent="1">
          <mxGeometry x="150" y="160" width="60" height="30" as="geometry" />
        </mxCell>
        <mxCell id="8s10dRwILeoP8qLKrgz9-4" value="今日やるべき事リスト" style="text;html=1;strokeColor=none;fillColor=none;align=center;verticalAlign=middle;whiteSpace=wrap;rounded=0;" vertex="1" parent="1">
          <mxGeometry x="150" y="110" width="190" height="30" as="geometry" />
        </mxCell>
        <mxCell id="8s10dRwILeoP8qLKrgz9-5" value="" style="rounded=0;whiteSpace=wrap;html=1;" vertex="1" parent="1">
          <mxGeometry x="510" y="190" width="230" height="230" as="geometry" />
        </mxCell>
        <mxCell id="8s10dRwILeoP8qLKrgz9-6" value="OK!" style="rounded=1;whiteSpace=wrap;html=1;fillColor=#f5f5f5;fontColor=#333333;strokeColor=#666666;" vertex="1" parent="1">
          <mxGeometry x="200" y="131" width="60" height="20" as="geometry" />
        </mxCell>
        <mxCell id="8s10dRwILeoP8qLKrgz9-7" value="新規追加" style="text;html=1;strokeColor=none;fillColor=none;align=center;verticalAlign=middle;whiteSpace=wrap;rounded=0;" vertex="1" parent="1">
          <mxGeometry x="170" y="220" width="70" height="30" as="geometry" />
        </mxCell>
        <mxCell id="8s10dRwILeoP8qLKrgz9-8" value="名称" style="rounded=0;whiteSpace=wrap;html=1;" vertex="1" parent="1">
          <mxGeometry x="170" y="250" width="290" height="20" as="geometry" />
        </mxCell>
        <mxCell id="8s10dRwILeoP8qLKrgz9-9" value="追加" style="rounded=1;whiteSpace=wrap;html=1;fillColor=#f5f5f5;fontColor=#333333;strokeColor=#666666;" vertex="1" parent="1">
          <mxGeometry x="280" y="280" width="60" height="20" as="geometry" />
        </mxCell>
        <mxCell id="8s10dRwILeoP8qLKrgz9-10" value="終わったら&lt;br&gt;complete!と出す" style="shape=note;whiteSpace=wrap;html=1;backgroundOutline=1;darkOpacity=0.05;size=24;fillColor=#fff2cc;strokeColor=#d6b656;" vertex="1" parent="1">
          <mxGeometry x="310" y="20" width="110" height="90" as="geometry" />
        </mxCell>
        <mxCell id="8s10dRwILeoP8qLKrgz9-11" value="学習内容一覧" style="text;html=1;strokeColor=none;fillColor=none;align=center;verticalAlign=middle;whiteSpace=wrap;rounded=0;" vertex="1" parent="1">
          <mxGeometry x="510" y="190" width="110" height="30" as="geometry" />
        </mxCell>
        <mxCell id="8s10dRwILeoP8qLKrgz9-13" value="A" style="rounded=0;whiteSpace=wrap;html=1;" vertex="1" parent="1">
          <mxGeometry x="520" y="245" width="70" height="30" as="geometry" />
        </mxCell>
        <mxCell id="8s10dRwILeoP8qLKrgz9-14" value="10日" style="rounded=0;whiteSpace=wrap;html=1;" vertex="1" parent="1">
          <mxGeometry x="589" y="245" width="70" height="30" as="geometry" />
        </mxCell>
        <mxCell id="8s10dRwILeoP8qLKrgz9-15" value="remove" style="rounded=1;whiteSpace=wrap;html=1;fillColor=#f8cecc;strokeColor=#b85450;" vertex="1" parent="1">
          <mxGeometry x="670" y="245" width="60" height="30" as="geometry" />
        </mxCell>
        <mxCell id="8s10dRwILeoP8qLKrgz9-20" value="名称" style="text;html=1;strokeColor=none;fillColor=none;align=center;verticalAlign=middle;whiteSpace=wrap;rounded=0;" vertex="1" parent="1">
          <mxGeometry x="525" y="220" width="60" height="30" as="geometry" />
        </mxCell>
        <mxCell id="8s10dRwILeoP8qLKrgz9-21" value="次の学習" style="text;html=1;strokeColor=none;fillColor=none;align=center;verticalAlign=middle;whiteSpace=wrap;rounded=0;" vertex="1" parent="1">
          <mxGeometry x="594" y="220" width="60" height="30" as="geometry" />
        </mxCell>
        <mxCell id="8s10dRwILeoP8qLKrgz9-22" value="名称、次学習は変更可能&lt;br&gt;反映は選択をはずした時&lt;br&gt;ただし、次学習は不正フォーマットなら更新しない" style="shape=note;whiteSpace=wrap;html=1;backgroundOutline=1;darkOpacity=0.05;size=24;fillColor=#fff2cc;strokeColor=#d6b656;" vertex="1" parent="1">
          <mxGeometry x="477" y="290" width="156" height="90" as="geometry" />
        </mxCell>
        <mxCell id="8s10dRwILeoP8qLKrgz9-25" value="update" style="rounded=1;whiteSpace=wrap;html=1;fillColor=#f5f5f5;fontColor=#333333;strokeColor=#666666;" vertex="1" parent="1">
          <mxGeometry x="377" y="116" width="80" height="30" as="geometry" />
        </mxCell>
        <mxCell id="8s10dRwILeoP8qLKrgz9-26" value="スクロール可能&lt;br&gt;フレーム" style="shape=note;whiteSpace=wrap;html=1;backgroundOutline=1;darkOpacity=0.05;size=24;fillColor=#fff2cc;strokeColor=#d6b656;" vertex="1" parent="1">
          <mxGeometry x="377" y="160" width="110" height="50" as="geometry" />
        </mxCell>
        <mxCell id="8s10dRwILeoP8qLKrgz9-27" value="学習内容一覧を開く" style="rounded=1;whiteSpace=wrap;html=1;" vertex="1" parent="1">
          <mxGeometry x="180" y="320" width="120" height="30" as="geometry" />
        </mxCell>
      </root>
    </mxGraphModel>
  </diagram>
</mxfile>
